<?xml version="1.0" encoding="utf-8"?>
<!-- Generator: Adobe Illustrator 24.1.2, SVG Export Plug-In . SVG Version: 6.00 Build 0)  -->
<svg version="1.1" id="Layer_1" xmlns="http://www.w3.org/2000/svg" xmlns:xlink="http://www.w3.org/1999/xlink" x="0px" y="0px"
	 viewBox="0 0 500 500" style="enable-background:new 0 0 500 500;" xml:space="preserve">
<style type="text/css">
	.st0{fill:none;}
	.st1{stroke:#000000;stroke-width:5;stroke-linejoin:round;stroke-miterlimit:10;}
</style>
<g>
	<path class="st0" d="M337.89,212.43l-1.11-27.78c-0.65-18.52-1.1-37.04-1.34-55.56c-0.04-1.03-0.31-1.99-0.78-2.87
		c-0.5-0.86-1.21-1.61-2.03-2.15c-0.85-0.51-1.77-0.83-2.75-0.92c-0.12,0-0.25,0-0.37,0l-0.19-0.01c-0.02,0-0.07-0.01-0.15,0
		l-0.22,0l-1.74,0.02l-3.47,0.03l-27.78,0.08l-27.78-0.12l-27.78-0.29l-55.56-0.83l-55.56-0.69c-1.29,0-2.54,0.29-3.68,0.85
		c-1.13,0.59-2.13,1.47-2.88,2.52c-0.72,1.07-1.2,2.3-1.36,3.59l-0.03,0.49c-0.01,0.16-0.03,0.29-0.03,0.63l-0.02,1.74l-0.03,3.47
		l-0.27,27.78l-0.54,55.56l-1.32,111.12c-0.02,1.67,0.36,3.33,1.1,4.84c0.77,1.49,1.91,2.8,3.29,3.79c1.4,0.96,3.02,1.59,4.73,1.81
		l0.64,0.04c0.21,0.02,0.41,0.04,0.73,0.04l1.74,0.03l3.47,0.05l27.78,0.56l55.56,1.32c13.38,0.32,26.77,0.56,40.15,0.73v-84.19
		h81.66l-0.8-17.9L337.89,212.43z"/>
</g>
<path d="M258.3,342.3c-13.38-0.17-26.77-0.41-40.15-0.73l-55.56-1.32l-27.78-0.56l-3.47-0.05l-1.74-0.03
	c-0.32,0-0.51-0.02-0.73-0.04l-0.64-0.04c-1.7-0.22-3.32-0.85-4.73-1.81c-1.38-0.99-2.52-2.3-3.29-3.79
	c-0.74-1.51-1.12-3.16-1.1-4.84l1.32-111.12l0.54-55.56l0.27-27.78l0.03-3.47l0.02-1.74c0-0.34,0.02-0.47,0.03-0.63l0.03-0.49
	c0.16-1.29,0.64-2.52,1.36-3.59c0.75-1.05,1.75-1.93,2.88-2.52c1.15-0.56,2.4-0.86,3.68-0.85l55.56,0.69l55.56,0.83l27.78,0.29
	l27.78,0.12l27.78-0.08l3.47-0.03l1.74-0.02l0.22,0c0.09,0,0.14,0,0.15,0l0.19,0.01c0.12,0.01,0.25,0.01,0.37,0
	c0.98,0.09,1.9,0.41,2.75,0.92c0.82,0.55,1.54,1.29,2.03,2.15c0.47,0.88,0.74,1.84,0.78,2.87c0.24,18.52,0.69,37.04,1.34,55.56
	l1.11,27.78l1.27,27.78l0.8,17.9h6.95l0.8-17.9l1.27-27.78l1.11-27.78c0.65-18.52,1.1-37.04,1.34-55.56
	c0.01-3.6-0.88-7.25-2.56-10.47c-1.71-3.21-4.2-5.98-7.2-8.04c-3.02-2.03-6.56-3.34-10.19-3.73l-1.36-0.09l-0.68-0.03l-0.28-0.01
	l-0.22,0l-1.74-0.02l-3.47-0.03l-27.78-0.08l-27.78,0.12L240.4,107l-55.56,0.83l-55.56,0.69c-3.34,0.03-6.71,0.9-9.66,2.49
	c-2.94,1.61-5.46,3.94-7.32,6.71c-1.82,2.79-2.98,6.04-3.29,9.35l-0.06,1.24c-0.02,0.41-0.03,0.86-0.02,1.1l0.02,1.74l0.03,3.47
	l0.27,27.78l0.54,55.56l1.32,111.12c0.05,2.96,0.83,5.91,2.24,8.51c1.43,2.58,3.49,4.79,5.94,6.41c2.47,1.59,5.31,2.58,8.22,2.84
	l1.09,0.05c0.36,0.01,0.75,0.03,1.01,0.02l1.74-0.03l3.47-0.05l27.78-0.56l55.56-1.32c13.38-0.32,26.77-0.56,40.15-0.73V342.3z"/>
<g>
	<path class="st1" d="M342.39,393.41h-4.86c-1.11,0-2.02-0.9-2.02-2.02V293.2c0-1.11,0.9-2.02,2.02-2.02h4.86
		c1.11,0,2.02,0.9,2.02,2.02v98.19C344.41,392.51,343.51,393.41,342.39,393.41z"/>
	<path class="st1" d="M391.08,339.87v4.86c0,1.11-0.9,2.02-2.02,2.02h-98.19c-1.11,0-2.02-0.9-2.02-2.02v-4.86
		c0-1.11,0.9-2.02,2.02-2.02h98.19C390.17,337.85,391.08,338.76,391.08,339.87z"/>
</g>
</svg>
