<?xml version="1.0" encoding="UTF-8"?><svg xmlns="http://www.w3.org/2000/svg" viewBox="0 0 223.63 223.63"><defs><style>.d{stroke:#231f20;stroke-miterlimit:10;stroke-width:3px;}.d,.e{fill:#231f20;}</style></defs><g id="a"/><g id="b"><g id="c"><g><circle class="d" cx="111.81" cy="24.06" r="22.56"/><circle class="d" cx="24.06" cy="199.57" r="22.56"/><circle class="d" cx="199.57" cy="199.57" r="22.56"/><circle class="d" cx="111.81" cy="199.57" r="22.56"/><g><path class="e" d="M199.57,166.53c-.73-6.59-.65-13.32-2.42-19.73-4.16-15.51-17.12-27.88-32.79-31.11-2.88-.63-6.47-.83-9.41-.91-8.95-.14-17.8-3-25.15-8.08-2.47-1.78-4.93-3.89-7.07-6.06-.62-.68-1.98-2.32-2.59-3.03-2.08-2.77-4.07-5.84-5.47-9.02-3.29-7.07-4.42-15.08-3.69-22.81,.24-3.35,.5-6.7,.83-10.05,.78,6.58,.63,13.35,2.19,19.8,2.89,12.45,11.55,23.38,22.97,28.9,5.63,2.74,11.83,4.25,18.08,4.36l5.26,.3c19.86,1.96,36.57,17.36,39.71,37.1,1.03,6.77,.14,13.58-.45,20.35h0Z"/><path class="e" d="M24.06,166.53c-.58-6.77-1.48-13.58-.45-20.35,3.14-19.75,19.84-35.13,39.71-37.1l5.26-.3c6.25-.1,12.45-1.62,18.08-4.36,11.42-5.52,20.08-16.46,22.97-28.9,1.56-6.46,1.41-13.22,2.19-19.8,.33,3.35,.59,6.7,.83,10.05,.73,7.73-.4,15.74-3.69,22.81-1.41,3.18-3.4,6.25-5.47,9.02-.59,.72-2.01,2.35-2.59,3.03-2.14,2.18-4.59,4.29-7.07,6.06-7.35,5.08-16.2,7.94-25.15,8.08-2.93,.08-6.53,.28-9.41,.91-15.66,3.22-28.63,15.6-32.79,31.11-1.77,6.41-1.68,13.14-2.42,19.73h0Z"/></g><path class="e" d="M111.81,55.72c2.38,18.42,2.92,36.89,3,55.4-.07,18.52-.61,36.99-3,55.4-2.39-18.42-2.93-36.89-3-55.4,.08-18.52,.62-36.99,3-55.4h0Z"/></g></g></g></svg>